<svg id="Capa_1" data-name="Capa 1" xmlns="http://www.w3.org/2000/svg" viewBox="0 0 53.77 53.77"><path d="M53.77,26.88A26.89,26.89,0,1,0,22.68,53.44V34.66H15.86V26.88h6.82V21c0-6.74,4-10.46,10.16-10.46a41,41,0,0,1,6,.53v6.61H35.47c-3.34,0-4.39,2.07-4.39,4.2v5h7.46l-1.19,7.78H31.08V53.44A26.89,26.89,0,0,0,53.77,26.88Z" style="fill:#010101"/><path d="M37.35,34.66l1.19-7.78H31.08v-5c0-2.13,1.05-4.2,4.39-4.2h3.39V11a41,41,0,0,0-6-.53C26.7,10.5,22.68,14.22,22.68,21v5.92H15.86v7.78h6.82V53.44a26.89,26.89,0,0,0,8.4,0V34.66Z" style="fill:#fff"/></svg>