<svg xmlns="http://www.w3.org/2000/svg" xmlns:xlink="http://www.w3.org/1999/xlink" viewBox="0 0 100.97 100.89"><defs><clipPath id="clip-path"><rect x="-1993.37" y="2291.63" width="1600" height="475.91" style="fill:none"/></clipPath><clipPath id="clip-path-2"><rect x="-2001.49" y="2276.76" width="1616.75" height="1077.83" transform="translate(-2386.22 5631.35) rotate(180)" style="fill:none"/></clipPath><radialGradient id="radial-gradient" cx="29.12" cy="1217.74" r="1645.6" gradientTransform="matrix(-1, 0, 0, 1, -1194.67, 0)" gradientUnits="userSpaceOnUse"><stop offset="0" stop-color="#fff"/><stop offset="0.17" stop-color="#c5c5c5"/><stop offset="0.4" stop-color="gray"/><stop offset="0.6" stop-color="#494949"/><stop offset="0.78" stop-color="#222"/><stop offset="0.91" stop-color="#0a0a0a"/><stop offset="1" stop-color="#010101"/></radialGradient></defs><g style="isolation:isolate"><g id="Capa_1" data-name="Capa 1"><g style="clip-path:url(#clip-path)"><g style="clip-path:url(#clip-path-2)"><circle cx="-1223.79" cy="1217.74" r="1645.6" style="mix-blend-mode:color-dodge;fill:url(#radial-gradient)"/></g></g><path d="M77.31,81.2H23.77a4,4,0,0,1-4-4V23.66a4,4,0,0,1,4-4H77.31a4,4,0,0,1,4,4V77.2A4,4,0,0,1,77.31,81.2ZM30,73h41a2,2,0,0,0,2-2v-41a2,2,0,0,0-2-2.06H30A2.05,2.05,0,0,0,28,29.92v41A2.05,2.05,0,0,0,30,73Z" style="fill:#fff;stroke:#fff;stroke-miterlimit:10;stroke-width:1.0256139881893862px"/><path d="M57.24,37a13.34,13.34,0,0,0-8.93,3.42A9.39,9.39,0,0,0,34.41,51a6.69,6.69,0,0,0,2.74,12.8H57.24C75,63.12,75,37.74,57.24,37Z" style="fill:#fff"/><line x1="50.54" y1="19.66" x2="50.54" y2="4.28" style="fill:none;stroke:#fff;stroke-miterlimit:10;stroke-width:1.0256139881893862px"/><circle cx="50.54" cy="2.22" r="2.05" style="fill:none;stroke:#fff;stroke-miterlimit:10;stroke-width:0.3441126305155138px"/><line x1="58.23" y1="19.66" x2="58.23" y2="13.68" style="fill:none;stroke:#fff;stroke-miterlimit:10;stroke-width:1.0256139881893862px"/><circle cx="58.23" cy="11.63" r="2.05" style="fill:none;stroke:#fff;stroke-miterlimit:10;stroke-width:0.3441126305155138px"/><line x1="42.85" y1="19.66" x2="42.85" y2="13.68" style="fill:none;stroke:#fff;stroke-miterlimit:10;stroke-width:1.0256139881893862px"/><circle cx="42.85" cy="11.63" r="2.05" style="fill:none;stroke:#fff;stroke-miterlimit:10;stroke-width:0.3441126305155138px"/><line x1="35.16" y1="19.66" x2="35.16" y2="4.28" style="fill:none;stroke:#fff;stroke-miterlimit:10;stroke-width:1.0256139881893862px"/><circle cx="35.16" cy="2.22" r="2.05" style="fill:none;stroke:#fff;stroke-miterlimit:10;stroke-width:0.3441126305155138px"/><line x1="27.46" y1="19.66" x2="27.46" y2="13.68" style="fill:none;stroke:#fff;stroke-miterlimit:10;stroke-width:1.0256139881893862px"/><circle cx="27.46" cy="11.63" r="2.05" style="fill:none;stroke:#fff;stroke-miterlimit:10;stroke-width:0.3441126305155138px"/><line x1="65.92" y1="19.66" x2="65.92" y2="4.28" style="fill:none;stroke:#fff;stroke-miterlimit:10;stroke-width:1.0256139881893862px"/><circle cx="65.92" cy="2.22" r="2.05" style="fill:none;stroke:#fff;stroke-miterlimit:10;stroke-width:0.3441126305155138px"/><line x1="73.62" y1="19.66" x2="73.62" y2="13.68" style="fill:none;stroke:#fff;stroke-miterlimit:10;stroke-width:1.0256139881893862px"/><circle cx="73.62" cy="11.63" r="2.05" style="fill:none;stroke:#fff;stroke-miterlimit:10;stroke-width:0.3441126305155138px"/><line x1="19.77" y1="50.43" x2="4.39" y2="50.43" style="fill:none;stroke:#fff;stroke-miterlimit:10;stroke-width:1.0256139881893862px"/><circle cx="2.34" cy="50.43" r="2.05" style="fill:none;stroke:#fff;stroke-miterlimit:10;stroke-width:0.3441126305155138px"/><line x1="19.77" y1="42.74" x2="13.79" y2="42.74" style="fill:none;stroke:#fff;stroke-miterlimit:10;stroke-width:1.0256139881893862px"/><circle cx="11.74" cy="42.74" r="2.05" style="fill:none;stroke:#fff;stroke-miterlimit:10;stroke-width:0.3441126305155138px"/><line x1="19.77" y1="58.12" x2="13.79" y2="58.12" style="fill:none;stroke:#fff;stroke-miterlimit:10;stroke-width:1.0256139881893862px"/><circle cx="11.74" cy="58.12" r="2.05" style="fill:none;stroke:#fff;stroke-miterlimit:10;stroke-width:0.3441126305155138px"/><line x1="19.77" y1="65.81" x2="4.39" y2="65.81" style="fill:none;stroke:#fff;stroke-miterlimit:10;stroke-width:1.0256139881893862px"/><circle cx="2.34" cy="65.81" r="2.05" style="fill:none;stroke:#fff;stroke-miterlimit:10;stroke-width:0.3441126305155138px"/><line x1="19.77" y1="73.5" x2="13.79" y2="73.5" style="fill:none;stroke:#fff;stroke-miterlimit:10;stroke-width:1.0256139881893862px"/><circle cx="11.74" cy="73.5" r="2.05" style="fill:none;stroke:#fff;stroke-miterlimit:10;stroke-width:0.3441126305155138px"/><line x1="19.77" y1="35.04" x2="4.39" y2="35.04" style="fill:none;stroke:#fff;stroke-miterlimit:10;stroke-width:1.0256139881893862px"/><circle cx="2.34" cy="35.04" r="2.05" style="fill:none;stroke:#fff;stroke-miterlimit:10;stroke-width:0.3441126305155138px"/><line x1="19.77" y1="27.35" x2="13.79" y2="27.35" style="fill:none;stroke:#fff;stroke-miterlimit:10;stroke-width:1.0256139881893862px"/><circle cx="11.74" cy="27.35" r="2.05" style="fill:none;stroke:#fff;stroke-miterlimit:10;stroke-width:0.3441126305155138px"/><line x1="50.54" y1="81.2" x2="50.54" y2="96.58" style="fill:none;stroke:#fff;stroke-miterlimit:10;stroke-width:1.0256139881893862px"/><circle cx="50.54" cy="98.63" r="2.05" style="fill:none;stroke:#fff;stroke-miterlimit:10;stroke-width:0.3441126305155138px"/><line x1="42.85" y1="81.2" x2="42.85" y2="87.18" style="fill:none;stroke:#fff;stroke-miterlimit:10;stroke-width:1.0256139881893862px"/><circle cx="42.85" cy="89.23" r="2.05" style="fill:none;stroke:#fff;stroke-miterlimit:10;stroke-width:0.3441126305155138px"/><line x1="58.23" y1="81.2" x2="58.23" y2="87.18" style="fill:none;stroke:#fff;stroke-miterlimit:10;stroke-width:1.0256139881893862px"/><circle cx="58.23" cy="89.23" r="2.05" style="fill:none;stroke:#fff;stroke-miterlimit:10;stroke-width:0.3441126305155138px"/><line x1="65.92" y1="81.2" x2="65.92" y2="96.58" style="fill:none;stroke:#fff;stroke-miterlimit:10;stroke-width:1.0256139881893862px"/><circle cx="65.92" cy="98.63" r="2.05" style="fill:none;stroke:#fff;stroke-miterlimit:10;stroke-width:0.3441126305155138px"/><line x1="73.62" y1="81.2" x2="73.62" y2="87.18" style="fill:none;stroke:#fff;stroke-miterlimit:10;stroke-width:1.0256139881893862px"/><circle cx="73.62" cy="89.23" r="2.05" style="fill:none;stroke:#fff;stroke-miterlimit:10;stroke-width:0.3441126305155138px"/><line x1="35.16" y1="81.2" x2="35.16" y2="96.58" style="fill:none;stroke:#fff;stroke-miterlimit:10;stroke-width:1.0256139881893862px"/><circle cx="35.16" cy="98.63" r="2.05" style="fill:none;stroke:#fff;stroke-miterlimit:10;stroke-width:0.3441126305155138px"/><line x1="27.46" y1="81.2" x2="27.46" y2="87.18" style="fill:none;stroke:#fff;stroke-miterlimit:10;stroke-width:1.0256139881893862px"/><circle cx="27.46" cy="89.23" r="2.05" style="fill:none;stroke:#fff;stroke-miterlimit:10;stroke-width:0.3441126305155138px"/><line x1="81.31" y1="50.43" x2="96.69" y2="50.43" style="fill:none;stroke:#fff;stroke-miterlimit:10;stroke-width:1.0256139881893862px"/><circle cx="98.74" cy="50.43" r="2.05" style="fill:none;stroke:#fff;stroke-miterlimit:10;stroke-width:0.3441126305155138px"/><line x1="81.31" y1="58.12" x2="87.29" y2="58.12" style="fill:none;stroke:#fff;stroke-miterlimit:10;stroke-width:1.0256139881893862px"/><circle cx="89.34" cy="58.12" r="2.05" style="fill:none;stroke:#fff;stroke-miterlimit:10;stroke-width:0.3441126305155138px"/><line x1="81.31" y1="42.74" x2="87.29" y2="42.74" style="fill:none;stroke:#fff;stroke-miterlimit:10;stroke-width:1.0256139881893862px"/><circle cx="89.34" cy="42.74" r="2.05" style="fill:none;stroke:#fff;stroke-miterlimit:10;stroke-width:0.3441126305155138px"/><line x1="81.31" y1="35.04" x2="96.69" y2="35.04" style="fill:none;stroke:#fff;stroke-miterlimit:10;stroke-width:1.0256139881893862px"/><circle cx="98.74" cy="35.04" r="2.05" style="fill:none;stroke:#fff;stroke-miterlimit:10;stroke-width:0.3441126305155138px"/><line x1="81.31" y1="27.35" x2="87.29" y2="27.35" style="fill:none;stroke:#fff;stroke-miterlimit:10;stroke-width:1.0256139881893862px"/><circle cx="89.34" cy="27.35" r="2.05" style="fill:none;stroke:#fff;stroke-miterlimit:10;stroke-width:0.3441126305155138px"/><line x1="81.31" y1="65.81" x2="96.69" y2="65.81" style="fill:none;stroke:#fff;stroke-miterlimit:10;stroke-width:1.0256139881893862px"/><circle cx="98.74" cy="65.81" r="2.05" style="fill:none;stroke:#fff;stroke-miterlimit:10;stroke-width:0.3441126305155138px"/><line x1="81.31" y1="73.5" x2="87.29" y2="73.5" style="fill:none;stroke:#fff;stroke-miterlimit:10;stroke-width:1.0256139881893862px"/><circle cx="89.34" cy="73.5" r="2.05" style="fill:none;stroke:#fff;stroke-miterlimit:10;stroke-width:0.3441126305155138px"/><path d="M66.87,53.49,56.74,58.12V55.89l7.84-3.35v0l-7.84-3.35V46.92l10.13,4.63Z" style="fill:#0078c1"/><path d="M48.91,58.94l4.51-15.26h2.12L51,58.94Z" style="fill:#0078c1"/><path d="M37.25,51.61l10.12-4.69v2.23L39.71,52.5v0l7.66,3.35v2.23l-10.12-4.7Z" style="fill:#0078c1"/></g></g></svg>