<svg id="Capa_1" data-name="Capa 1" xmlns="http://www.w3.org/2000/svg" viewBox="0 0 53.77 53.77"><circle cx="26.88" cy="26.88" r="26.88" style="fill:#010101"/><path d="M26.88,13c4.52,0,5.06,0,6.84.1a9.37,9.37,0,0,1,3.15.58,5.6,5.6,0,0,1,3.21,3.21A9.3,9.3,0,0,1,40.66,20c.08,1.79.1,2.32.1,6.84s0,5.06-.1,6.84a9.37,9.37,0,0,1-.58,3.15,5.67,5.67,0,0,1-3.21,3.21,9.37,9.37,0,0,1-3.15.58c-1.78.08-2.32.1-6.84.1s-5.05,0-6.84-.1a9.3,9.3,0,0,1-3.14-.58,5.6,5.6,0,0,1-3.21-3.21,9.37,9.37,0,0,1-.58-3.15C13,31.94,13,31.4,13,26.88s0-5.05.1-6.84a9.3,9.3,0,0,1,.58-3.14,5.52,5.52,0,0,1,3.21-3.21A9.3,9.3,0,0,1,20,13.11c1.79-.09,2.32-.1,6.84-.1m0-3c-4.59,0-5.17,0-7,.1a12.23,12.23,0,0,0-4.1.79,8.62,8.62,0,0,0-5,5,12.23,12.23,0,0,0-.79,4.1c-.08,1.81-.1,2.39-.1,7s0,5.18.1,7A12.35,12.35,0,0,0,10.85,38a8.29,8.29,0,0,0,2,3,8.21,8.21,0,0,0,3,2,12.23,12.23,0,0,0,4.1.79c1.81.08,2.39.1,7,.1s5.18,0,7-.1A12.35,12.35,0,0,0,38,42.92a8.62,8.62,0,0,0,5-5,12.35,12.35,0,0,0,.79-4.11c.08-1.8.1-2.38.1-7s0-5.17-.1-7a12.23,12.23,0,0,0-.79-4.1,8.21,8.21,0,0,0-2-3,8.29,8.29,0,0,0-3-2,12.35,12.35,0,0,0-4.11-.79c-1.8-.08-2.38-.1-7-.1Z" style="fill:#fff"/><path d="M26.88,18.19a8.7,8.7,0,1,0,8.7,8.69A8.69,8.69,0,0,0,26.88,18.19Zm0,14.34a5.65,5.65,0,1,1,5.65-5.65A5.65,5.65,0,0,1,26.88,32.53Z" style="fill:#fff"/><circle cx="35.92" cy="17.85" r="2.03" style="fill:#fff"/></svg>