<svg xmlns="http://www.w3.org/2000/svg" xmlns:xlink="http://www.w3.org/1999/xlink" viewBox="0 0 102.07 101.63"><defs><clipPath id="clip-path"><rect x="-1713.05" y="2291.63" width="1600" height="475.91" style="fill:none"/></clipPath><clipPath id="clip-path-2"><rect x="-1721.17" y="2276.76" width="1616.75" height="1077.83" transform="translate(-1825.59 5631.35) rotate(180)" style="fill:none"/></clipPath><radialGradient id="radial-gradient" cx="309.44" cy="1217.74" r="1645.6" gradientTransform="matrix(-1, 0, 0, 1, -634.04, 0)" gradientUnits="userSpaceOnUse"><stop offset="0" stop-color="#fff"/><stop offset="0.17" stop-color="#c5c5c5"/><stop offset="0.4" stop-color="gray"/><stop offset="0.6" stop-color="#494949"/><stop offset="0.78" stop-color="#222"/><stop offset="0.91" stop-color="#0a0a0a"/><stop offset="1" stop-color="#010101"/></radialGradient></defs><g style="isolation:isolate"><g id="Capa_1" data-name="Capa 1"><g style="clip-path:url(#clip-path)"><g style="clip-path:url(#clip-path-2)"><circle cx="-943.48" cy="1217.74" r="1645.6" style="mix-blend-mode:color-dodge;fill:url(#radial-gradient)"/></g></g><path d="M42.58,0C53.06.16,62.84,1.2,72,5.16a38.7,38.7,0,0,1,10.18,6.38C87.33,16.13,87,22.35,81.87,27c-5.83,5.29-13,7.69-20.51,9.18-15,3-29.87,2.65-44.5-2.11A33,33,0,0,1,4.07,27C-1.23,22-1.22,16.2,4,11.18,8.25,7.1,13.52,5,19,3.3A85.52,85.52,0,0,1,42.58,0Z" style="fill:#fff"/><path d="M55.6,61.7a6,6,0,0,1-.14-2.35c.33-.91,1-2.3,1.69-2.39,5.17-.69,9.14-3.78,13.4-6.3.87-.52,1.81-.92,2.63-1.51,3.95-2.83,7.74-2.21,11.6.28,3.09,2,6.26,3.88,9.52,5.57a24.87,24.87,0,0,0,5.31,1.67c1.54.38,2.57,1.24,2.44,2.82-.77,9.55-2.29,18.91-7.29,27.36a40.6,40.6,0,0,1-14.23,14.21,3.26,3.26,0,0,1-3.8-.08c-11-6.58-17-16.54-19.64-28.79-.74-3.45-1.14-7-1.7-10.46Zm4.71,2.71c.44,2.76.75,5.54,1.34,8.26,2.07,9.66,6.83,17.53,15.5,22.72a2.57,2.57,0,0,0,3,.06A31.93,31.93,0,0,0,91.37,84.23c3.95-6.66,5.15-14,5.76-21.58.1-1.25-.71-1.93-1.93-2.23A19.11,19.11,0,0,1,91,59.1c-2.57-1.33-5.07-2.82-7.51-4.39-3-2-6-2.46-9.16-.22-.64.46-1.38.78-2.07,1.19-3.36,2-6.49,4.43-10.57,5-.54.07-1.08,1.16-1.34,1.89a4.93,4.93,0,0,0,.11,1.85Z" style="fill:#fff"/><path d="M.05,27.35C2.59,32,6.52,34.81,10.94,37c8.38,4.1,17.37,5.72,26.59,6.21,10.9.58,21.66-.29,32-4a50.59,50.59,0,0,0,8.2-3.84,16.57,16.57,0,0,0,7.92-8.75v13.9c-.37.07-.54.16-.63.11-5.62-3-10.77-1.27-15.79,1.56-2.32,1.31-4.52,2.85-6.91,4a40.62,40.62,0,0,1-6.74,2.64,10.83,10.83,0,0,0-7.82,7.37c-.21.62-1,1.46-1.6,1.48-12,.31-23.82-.88-34.83-6.16a35.18,35.18,0,0,1-7.17-4.76A11,11,0,0,1,0,37.68C.13,34.24.05,30.8.05,27.35Z" style="fill:#fff"/><path d="M58.85,96.36c-4.84.34-9.69.92-14.55,1-11.58.19-22.94-1.21-33.47-6.44a35.72,35.72,0,0,1-6.92-4.75,10.86,10.86,0,0,1-3.88-9c.1-3.35,0-6.71,0-10.66C5.57,76,14.57,78.68,23.75,80.88a80.61,80.61,0,0,0,25.82,1.77c1.66-.14,2.34.43,3,1.87C54.48,88.39,56.61,92.14,58.85,96.36Z" style="fill:#fff"/><path d="M0,47.17c3.64,6.49,9.58,9.39,15.9,11.69,9.2,3.35,18.79,4.38,28.52,4.28h3c.8,4.71,1.59,9.31,2.38,14a1.06,1.06,0,0,1-.44.21c-12.08.79-24-.11-35.29-4.78A47.06,47.06,0,0,1,3.74,66.12C1,64-.1,60.82,0,57.26.11,53.9,0,50.54,0,47.17Z" style="fill:#fff"/></g></g></svg>