<svg id="Capa_1" data-name="Capa 1" xmlns="http://www.w3.org/2000/svg" viewBox="0 0 53.77 53.77"><circle cx="26.88" cy="26.88" r="26.88" style="fill:#010101"/><g id="WA_Logo" data-name="WA Logo"><path d="M39.82,14.28A17.06,17.06,0,0,0,13,34.85l-2.42,8.84,9.05-2.37a17,17,0,0,0,8.15,2.07h0A17.06,17.06,0,0,0,39.82,14.28ZM27.75,40.51h0a14.16,14.16,0,0,1-7.22-2L20,38.23l-5.36,1.41,1.43-5.23-.34-.54a14.18,14.18,0,1,1,12,6.64ZM35.53,29.9c-.43-.21-2.52-1.24-2.91-1.39s-.68-.21-1,.22-1.1,1.38-1.35,1.67-.5.32-.93.1A11.65,11.65,0,0,1,26,28.39a12.72,12.72,0,0,1-2.37-2.95.62.62,0,0,1,.18-.87c.2-.19.43-.5.64-.75a2.45,2.45,0,0,0,.43-.71.77.77,0,0,0,0-.74c-.1-.22-1-2.31-1.31-3.17s-.7-.71-1-.73h-.82a1.54,1.54,0,0,0-1.13.53,4.79,4.79,0,0,0-1.49,3.55A8.21,8.21,0,0,0,20.83,27c.21.29,3,4.59,7.28,6.43a24.57,24.57,0,0,0,2.43.9,5.88,5.88,0,0,0,2.68.17,4.39,4.39,0,0,0,2.88-2,3.52,3.52,0,0,0,.24-2C36.24,30.22,36,30.11,35.53,29.9Z" style="fill:#fff;fill-rule:evenodd"/></g></svg>