<svg xmlns="http://www.w3.org/2000/svg" xmlns:xlink="http://www.w3.org/1999/xlink" viewBox="0 0 100.92 100.89"><defs><clipPath id="clip-path"><rect x="-1559.55" y="2291.63" width="1600" height="475.91" style="fill:none"/></clipPath><clipPath id="clip-path-2"><rect x="-1567.67" y="2276.76" width="1616.75" height="1077.83" transform="translate(-1518.59 5631.35) rotate(180)" style="fill:none"/></clipPath><radialGradient id="radial-gradient" cx="462.94" cy="1217.74" r="1645.6" gradientTransform="matrix(-1, 0, 0, 1, -327.03, 0)" gradientUnits="userSpaceOnUse"><stop offset="0" stop-color="#fff"/><stop offset="0.17" stop-color="#c5c5c5"/><stop offset="0.4" stop-color="gray"/><stop offset="0.6" stop-color="#494949"/><stop offset="0.78" stop-color="#222"/><stop offset="0.91" stop-color="#0a0a0a"/><stop offset="1" stop-color="#010101"/></radialGradient></defs><g style="isolation:isolate"><g id="Capa_1" data-name="Capa 1"><g style="clip-path:url(#clip-path)"><g style="clip-path:url(#clip-path-2)"><circle cx="-789.97" cy="1217.74" r="1645.6" style="mix-blend-mode:color-dodge;fill:url(#radial-gradient)"/></g></g><rect x="4.82" y="61.13" width="21.17" height="37.95" style="fill:#fff"/><rect x="40.27" y="42.91" width="21.17" height="56.17" style="fill:#fff"/><line x1="86.64" y1="6.9" x2="3.13" y2="55.44" style="fill:none;stroke:#fff;stroke-linecap:round;stroke-linejoin:round;stroke-width:3.162934038079847px"/><polygon points="71.08 0.99 70.38 4.07 85.59 7.51 81.05 22.43 84.08 23.35 89.61 5.18 71.08 0.99" style="fill:#fff"/><rect x="75.72" y="21.89" width="21.17" height="77.19" style="fill:#fff"/><path d="M84.4,74.91V71.25a16,16,0,0,1-6.55-1.65L79,65.09a13.56,13.56,0,0,0,6.4,1.7c2.23,0,3.74-.89,3.74-2.39S87.9,62,85,61.05c-4.12-1.39-6.93-3.32-6.93-7.06,0-3.42,2.39-6.08,6.51-6.85V43.48h3.77v3.39A13.77,13.77,0,0,1,94,48.14l-1.16,4.35a12,12,0,0,0-5.54-1.35c-2.51,0-3.32,1.12-3.32,2.2s1.35,2.08,4.66,3.27c4.59,1.62,6.4,3.74,6.4,7.25S92.64,70.21,88.21,71v4Z" style="fill:#3d7894"/><rect x="-0.05" y="95.63" width="100.97" height="4.96" style="fill:#fff"/></g></g></svg>