<svg xmlns="http://www.w3.org/2000/svg" xmlns:xlink="http://www.w3.org/1999/xlink" viewBox="0 0 94.04 100.89"><defs><clipPath id="clip-path"><rect x="-1848.46" y="2291.63" width="1600" height="475.91" style="fill:none"/></clipPath><clipPath id="clip-path-2"><rect x="-1856.58" y="2276.76" width="1616.75" height="1077.83" transform="translate(-2096.42 5631.35) rotate(180)" style="fill:none"/></clipPath><radialGradient id="radial-gradient" cx="174.03" cy="1217.74" r="1645.6" gradientTransform="matrix(-1, 0, 0, 1, -904.86, 0)" gradientUnits="userSpaceOnUse"><stop offset="0" stop-color="#fff"/><stop offset="0.17" stop-color="#c5c5c5"/><stop offset="0.4" stop-color="gray"/><stop offset="0.6" stop-color="#494949"/><stop offset="0.78" stop-color="#222"/><stop offset="0.91" stop-color="#0a0a0a"/><stop offset="1" stop-color="#010101"/></radialGradient></defs><g style="isolation:isolate"><g id="Capa_1" data-name="Capa 1"><g style="clip-path:url(#clip-path)"><g style="clip-path:url(#clip-path-2)"><circle cx="-1078.89" cy="1217.74" r="1645.6" style="mix-blend-mode:color-dodge;fill:url(#radial-gradient)"/></g></g><path d="M66.31,69.39H83.06c1.57,0,2,.43,2,2,0,2.46,0,4.93,0,7.39,0,.58.08.9.79,1.07a10.58,10.58,0,0,1,7,15.29,9.93,9.93,0,0,1-11.19,5.46,10.47,10.47,0,0,1-8.25-9.48c-.33-5.66,2.74-9.86,8.33-11.32a.62.62,0,0,0,.56-.73c0-2,0-4.07,0-6.11,0-.61-.27-.69-.77-.68-1.81,0-3.62,0-5.42,0H49.75c-1.54,0-1.33-.17-1.34,1.39s.08,3,0,4.53c-.09,1.07.32,1.22,1.26,1.21,4.43-.05,8.87,0,13.3,0,1.32,0,1.9.55,1.9,1.89q0,8.82,0,17.63c0,1.52-.45,1.94-1.93,1.94H31.08c-1.51,0-2-.47-2-2,0-5.78,0-11.56,0-17.34,0-1.68.48-2.13,2.19-2.13,4.44,0,8.87,0,13.31,0,.77,0,1-.2,1-1-.06-1.77,0-3.54,0-5.31,0-.66-.21-.83-.85-.83q-15.42,0-30.84,0c-.67,0-.82.24-.81.86,0,2.3,0,4.6,0,6.9a2.26,2.26,0,0,0,.32,1.21c2.76,5,5.5,9.92,8.27,14.88a16.17,16.17,0,0,1,1.4,2.55c.44,1.26-.12,2.17-1.46,2.18-2.73,0-5.45,0-8.18,0-3.84,0-7.68,0-11.52,0-1.83,0-2.39-1-1.49-2.64q4.67-8.38,9.32-16.76a3.46,3.46,0,0,0,.45-1.77c0-2.73,0-5.46,0-8.18,0-1.66.43-2.09,2.1-2.09l31.92-.06c1.36,0,1.36,0,1.36-1.41s-.06-3.09,0-4.63c.06-1-.3-1.12-1.16-1.12-8.25,0-16.49,0-24.73,0a12,12,0,0,1-6.5-1.62A12.11,12.11,0,0,1,7.13,50.37,12,12,0,0,1,16.71,38c.92-.2,1-.69,1.13-1.39.94-4.7,3.54-8,8.23-9.34a10.83,10.83,0,0,1,5-.12,10.44,10.44,0,0,1,5,2.57c.56.48.8.43,1.15-.23a12.87,12.87,0,0,1,12.6-7.45,13.6,13.6,0,0,1,6.68,2.23,12.23,12.23,0,0,1,3.74,3.94c.3.45.51.51,1,.25,5.09-2.77,11.21-1.76,15.26,3.61A9.4,9.4,0,0,1,78.3,37a2.09,2.09,0,0,0,1.43,1.84,12.47,12.47,0,0,1,6.7,14.61,11.47,11.47,0,0,1-3.54,5.78,12.06,12.06,0,0,1-8,3c-8.45,0-16.89,0-25.33,0-1,0-1.28.25-1.23,1.25.09,1.6.08,3.22,0,4.82,0,.87.2,1.11,1.08,1.11,5.62,0,11.23,0,16.85,0Zm11.88-28a12.07,12.07,0,0,1-3.34,6C73.21,49,73.2,49,72,47.13L71.89,47c-.31-.36-.31-.59.13-.93A8.92,8.92,0,0,0,62.36,31.1a1,1,0,0,0-.53,1.27,11.76,11.76,0,0,1,.1,5.08c-.41,2.26-.41,2.23-2.55,1.45-.62-.22-.67-.47-.52-1a10.11,10.11,0,0,0-7.12-12.6,10.23,10.23,0,0,0-12.66,7.49,2.57,2.57,0,0,0,.11,1.71,11.45,11.45,0,0,1,.71,2.95c.06.44,0,.68-.54.65a6.69,6.69,0,0,0-.89.08c-1.31.14-1.31.14-1.54-1.21-.69-4.14-4.67-7.48-8.5-7.13A8.69,8.69,0,0,0,20.62,37c-.11.61,0,.8.68.92a11.44,11.44,0,0,1,6.53,3.55,14.39,14.39,0,0,0-1.31,1.26c-.49.61-.84.62-1.46.07A8.92,8.92,0,0,0,14.3,42a9.37,9.37,0,0,0-4,10.44,9.22,9.22,0,0,0,8.61,6.86c5.22,0,10.45,0,15.67,0,.74,0,.83-.25.82-.9,0-2.79,0-5.58,0-8.36,0-1.35.47-1.83,1.83-1.83H56.5c1.74,0,2.12.41,2.12,2.16,0,2.66,0,5.32,0,8,0,.73.12,1,.94,1,4.89,0,9.78,0,14.68,0a9.35,9.35,0,0,0,4-18ZM47,82.31c-4.73,0-9.45,0-14.18,0-.66,0-.88.13-.88.84,0,4.69,0,9.39,0,14.08,0,.66.2.8.83.8Q47,98,61.16,98c.62,0,.83-.13.83-.8,0-4.69,0-9.38,0-14.07,0-.71-.2-.86-.88-.85C56.42,82.33,51.73,82.31,47,82.31ZM83.62,97.94a7.73,7.73,0,1,0-7.46-7.85A7.57,7.57,0,0,0,83.62,97.94ZM46.91,59.3v0H55c.39,0,.76.08.75-.56,0-2.36,0-4.71,0-7.07,0-.47-.16-.67-.69-.67-5.38,0-10.76,0-16.13,0-.66,0-.74.27-.73.82,0,2.2,0,4.4,0,6.59,0,.68.14.89.85.88C41.66,59.27,44.29,59.3,46.91,59.3ZM11.6,83.94c-2.61,4.71-5.17,9.33-7.72,14C4,98,4,98,4,98L18.7,98c.7,0,.56-.29.32-.71l-2-3.6Z" style="fill:#fff"/><path d="M76.51,7.33a4.65,4.65,0,0,1,4.95-4.59A4.79,4.79,0,0,1,86,7.63a4.82,4.82,0,0,1-5,4.56A4.75,4.75,0,0,1,76.51,7.33Zm4.73,1.95a1.83,1.83,0,0,0,1.82-1.9,1.92,1.92,0,0,0-1.91-1.86,1.94,1.94,0,0,0-1.82,2A1.85,1.85,0,0,0,81.24,9.28Z" style="fill:#fff"/><path d="M59.39,10.22a4.73,4.73,0,1,1,9.45,0A4.79,4.79,0,0,1,64,14.92,4.66,4.66,0,0,1,59.39,10.22Zm6.54-.11a1.84,1.84,0,0,0-1.87-1.85,1.9,1.9,0,0,0-1.85,1.9A1.86,1.86,0,0,0,64.12,12,1.8,1.8,0,0,0,65.93,10.11Z" style="fill:#fff"/><path d="M46.9,9.46A4.72,4.72,0,0,1,42.29,4.7,4.68,4.68,0,0,1,47,0a4.73,4.73,0,1,1-.06,9.46ZM47,2.83a1.94,1.94,0,0,0-1.87,1.91A2,2,0,0,0,47,6.62a1.93,1.93,0,0,0,1.84-1.93A1.88,1.88,0,0,0,47,2.83Z" style="fill:#fff"/><path d="M12.76,2.74a4.74,4.74,0,0,1,.09,9.47A4.86,4.86,0,0,1,8,7.39,4.68,4.68,0,0,1,12.76,2.74ZM10.91,7.32a1.82,1.82,0,0,0,1.75,2,1.89,1.89,0,0,0,2-1.76,2,2,0,0,0-1.79-2A1.85,1.85,0,0,0,10.91,7.32Z" style="fill:#fff"/><path d="M34.59,10.07a4.76,4.76,0,0,1-4.71,4.87,4.85,4.85,0,0,1-4.72-4.82,4.72,4.72,0,0,1,9.43,0ZM29.86,12a1.88,1.88,0,0,0,1.89-1.85,1.9,1.9,0,0,0-1.86-1.89A1.87,1.87,0,0,0,28,10.12,1.84,1.84,0,0,0,29.86,12Z" style="fill:#fff"/><path d="M11.35,19.54c0-1.7,0-3.41,0-5.11,0-.54.07-.8.72-.85,2.21-.16,2.2-.2,2.2,2,0,2.46,0,4.92,0,7.38A2.49,2.49,0,0,0,15.1,25c1.19,1.12,2.31,2.32,3.48,3.47.44.43.46.73,0,1.19-1.43,1.44-1.41,1.46-2.83.06s-2.62-2.67-4-4a1.39,1.39,0,0,1-.45-1.13C11.36,23,11.35,21.25,11.35,19.54Z" style="fill:#fff"/><path d="M82.66,19.07c0,1.48,0,3,0,4.43A2,2,0,0,1,82.11,25c-1.37,1.37-2.75,2.73-4.1,4.11-.39.41-.63.37-1,0-1.57-1.46-1.7-1.58-.09-2.92,2.21-1.83,3.3-3.93,2.88-6.87a40.18,40.18,0,0,1,0-4.91c0-.64.2-.83.83-.86,2.08-.1,2.08-.13,2.07,1.95v3.54Z" style="fill:#fff"/><path d="M28.44,18.74a7.74,7.74,0,0,0,0-1.21c-.16-.94.22-1.27,1.15-1.24,2.08.07,1.72-.16,1.69,1.64a2.74,2.74,0,0,0,.91,2.24c1.56,1.46,3,3,4.55,4.5.54.52.55.89,0,1.33-.18.14-.33.32-.5.48-1,1-1.54,1-2.32-.18-1-1.61-2.56-2.71-3.78-4.11a2.44,2.44,0,0,0-.29-.27C28.71,21.05,28.07,20,28.44,18.74Z" style="fill:#fff"/><path d="M59.3,23.89l.52-.41c2-1.55,3.38-3.39,2.79-6.14-.17-.8.2-1.07,1-1,1.91.05,1.75,0,1.95,1.9a6.41,6.41,0,0,1-2.48,6.15c-1.64,1.33-1.52,1.49-3,0A1.6,1.6,0,0,0,59.3,23.89Z" style="fill:#fff"/><path d="M48.4,15.4c0,1.25,0,2.5,0,3.75,0,.55-.19.72-.73.74-2.1.09-2.1.11-2.09-1.93s0-4.07,0-6.11c0-.72.19-.93.92-1,1.92-.12,1.92-.17,1.92,1.76V15.4Z" style="fill:#fff"/></g></g></svg>