<svg id="Capa_1" data-name="Capa 1" xmlns="http://www.w3.org/2000/svg" viewBox="0 0 205.87 65.31"><path d="M7.44,36.06c0-3.14,0-6.28,0-9.43a1.72,1.72,0,0,1,1-1.75c5.52-3.15,11-6.36,16.51-9.54A2.14,2.14,0,0,1,28,17.17c0,1.36,0,2.71,0,4.06,0,1.54.05,1.68,1.58,1.58,2.74-.18,5.48.17,8.21,0a7.4,7.4,0,0,1,3.31.82c2.51,1,3.17,2.68,3.06,5.31-.22,5.52-.07,11,0,16.56a1.61,1.61,0,0,1-1,1.65c-5.59,2.93-10.88,6.39-16.38,9.49a1.76,1.76,0,0,1-2,0Q16.49,51.82,8.11,47a1.28,1.28,0,0,1-.69-1.32c0-3.22,0-6.44,0-9.66Zm27-8.32c0-2.48,0-2.48-2.42-2.49s-2.39,0-2.39,2.4,0,2.43,2.47,2.43S34.47,30.08,34.47,27.74ZM23.94,23.83c0-2.48,0-2.48-2.48-2.48s-2.36,0-2.35,2.38,0,2.44,2.47,2.44S23.94,26.17,23.94,23.83Z" style="fill:#fff"/><path d="M30.42,8.94a1.37,1.37,0,0,1-1.23.24c-1-.11-1.29.34-1.21,1.27.06.73,0,1.46,0,2.19,0,.58-.26.95-.77.51-1.17-1-2.11-.5-3.23.16q-8.68,5.1-17.47,10.06a2.28,2.28,0,0,0-1.32,2.31c.06,7,0,14,0,21a1.91,1.91,0,0,0,1.09,1.91c5,2.84,10,5.69,14.88,8.63,1.28.77,2.62,1.4,3.87,2.2a1.23,1.23,0,0,0,1.42,0Q35.77,54,45.09,48.66a2.12,2.12,0,0,0,1.25-2.15q-.08-10.63,0-21.28a1.57,1.57,0,0,0-1-1.69c-.4-.17-.73-.52-1.14-.65-2.25-.73-2.93-2.3-2.56-4.53.15-.85-.37-2.18.19-2.49.72-.4,1.57.64,2.36,1.07,1.89,1,3.73,2.14,5.62,3.19a3.17,3.17,0,0,1,1.76,3c0,8.62,0,17.25,0,25.88A3,3,0,0,1,50,51.75c-2.75,1.62-5.56,3.14-8.33,4.73-1,.54-1.84,1.17-2.77,1.71-3.8,2.21-7.62,4.37-11.39,6.6a3.14,3.14,0,0,1-3.5,0c-4.79-2.86-9.67-5.55-14.46-8.4-2.56-1.53-5.15-3-7.78-4.44A3.16,3.16,0,0,1,0,48.85c0-8.59,0-17.18,0-25.78a3,3,0,0,1,1.65-2.85Q10.5,15.13,19.3,10c1.64-.95,3.31-1.86,4.9-2.89A2.68,2.68,0,0,1,27.09,7C28.22,7.57,29.28,8.27,30.42,8.94Z" style="fill:#fff"/><path d="M29.4,16c0-1.46,0-2.92,0-4.39,0-.72.17-1.06,1-1.05,3,0,5.92,0,8.88,0,.65,0,.94.23.9.9-.07,1.27-.15,2.57-.15,3.82,0,1.64.08,3.3.17,5,0,.87-.18,1.24-1.14,1.22-2.85-.06-5.7,0-8.56,0-.79,0-1.11-.22-1.09-1,.05-1.46,0-2.93,0-4.39Z" style="fill:#fff"/><path d="M50,11.2c0,.62,0,1.25,0,1.86.08.88-.17,1.25-1.13,1.19-1.35-.08-2.7,0-4,0-.63,0-1-.12-.92-.84,0-1.46,0-2.92,0-4.38,0-.59.15-.87.79-.85,1.5,0,3,0,4.49,0,.64,0,.83.26.8.85S50,10.47,50,11.2Z" style="fill:#fff"/><path d="M40.79,2.47c0,2.59,0,2.59-2.56,2.59s-2.58,0-2.58-2.61C35.65,0,35.65,0,38.07,0h1.32C40.8,0,40.8,0,40.79,1.37Z" style="fill:#fff"/><text transform="translate(58.7 52.92)" style="font-size:49.553810119628906px;fill:#fff;font-family:aliensandcows, aliens and cows">DATAB<tspan x="105.6" y="0" style="letter-spacing:-0.011489246460071465em">O</tspan><tspan x="126.93" y="0">X</tspan></text></svg>