<svg xmlns="http://www.w3.org/2000/svg" xmlns:xlink="http://www.w3.org/1999/xlink" viewBox="0 0 262.13 214.32"><defs><clipPath id="clip-path"><rect x="1074.06" y="2791.37" width="1600" height="475.91" style="fill:none"/></clipPath><clipPath id="clip-path-2"><rect x="1065.94" y="2776.5" width="1616.75" height="1077.83" transform="translate(3748.63 6630.82) rotate(180)" style="fill:none"/></clipPath><radialGradient id="radial-gradient" cx="-1563.77" cy="1717.48" r="1645.6" gradientTransform="matrix(-1, 0, 0, 1, 279.87, 0)" gradientUnits="userSpaceOnUse"><stop offset="0" stop-color="#fff"/><stop offset="0.17" stop-color="#c5c5c5"/><stop offset="0.4" stop-color="gray"/><stop offset="0.6" stop-color="#494949"/><stop offset="0.78" stop-color="#222"/><stop offset="0.91" stop-color="#0a0a0a"/><stop offset="1" stop-color="#010101"/></radialGradient></defs><g style="isolation:isolate"><g id="Capa_1" data-name="Capa 1"><g style="clip-path:url(#clip-path)"><g style="clip-path:url(#clip-path-2)"><circle cx="1843.64" cy="1717.48" r="1645.6" style="mix-blend-mode:color-dodge;fill:url(#radial-gradient)"/></g></g><path d="M94.46,69.64c0-6.07.06-12.14,0-18.21a3.33,3.33,0,0,1,1.85-3.38c10.66-6.1,21.26-12.28,31.89-18.42a4.13,4.13,0,0,1,6,3.54q0,3.91,0,7.83c0,3,.1,3.24,3.05,3,5.3-.35,10.58.33,15.87,0,2.33-.13,4.25.73,6.38,1.6,4.85,2,6.12,5.16,5.92,10.25-.43,10.65-.15,21.32-.09,32a3.08,3.08,0,0,1-1.82,3.18c-10.81,5.66-21,12.33-31.65,18.32a3.39,3.39,0,0,1-3.86.06q-16.08-9.41-32.25-18.63a2.47,2.47,0,0,1-1.33-2.56c0-6.21,0-12.42,0-18.64Zm52.21-16.08c0-4.79,0-4.79-4.68-4.79s-4.61,0-4.61,4.62,0,4.7,4.77,4.7C146.66,58.09,146.66,58.09,146.67,53.56ZM126.32,46c0-4.8,0-4.8-4.79-4.79-4.55,0-4.55,0-4.53,4.59s0,4.72,4.78,4.72C126.32,50.54,126.32,50.54,126.32,46Z" style="fill:#00499a"/><path d="M138.83,17.26a2.61,2.61,0,0,1-2.37.46c-2-.21-2.49.66-2.34,2.46.13,1.4,0,2.82,0,4.23,0,1.12-.49,1.84-1.48,1-2.27-2-4.07-1-6.23.31q-16.78,9.86-33.74,19.43a4.41,4.41,0,0,0-2.56,4.47c.12,13.48.1,27,0,40.45a3.68,3.68,0,0,0,2.09,3.69c9.63,5.48,19.24,11,28.75,16.67,2.46,1.47,5,2.7,7.47,4.23a2.34,2.34,0,0,0,2.74,0Q149.17,104.27,167.17,94a4.16,4.16,0,0,0,2.42-4.16c-.11-13.7-.09-27.39,0-41.09a3,3,0,0,0-2-3.27c-.78-.32-1.42-1-2.2-1.26-4.35-1.41-5.66-4.45-4.94-8.74.27-1.65-.72-4.21.36-4.81,1.38-.77,3,1.23,4.55,2.05,3.65,2,7.21,4.15,10.85,6.18a6,6,0,0,1,3.39,5.84c0,16.66,0,33.32,0,50a5.86,5.86,0,0,1-3,5.23c-5.32,3.13-10.74,6.07-16.1,9.13-1.82,1-3.54,2.26-5.35,3.32-7.33,4.25-14.71,8.42-22,12.73a6,6,0,0,1-6.75,0c-9.25-5.52-18.68-10.72-27.93-16.23-4.94-3-9.94-5.82-15-8.57a6.07,6.07,0,0,1-3.42-5.93q0-24.89,0-49.77A5.83,5.83,0,0,1,83.3,39q17.07-9.8,34.07-19.72c3.17-1.83,6.39-3.57,9.45-5.57a5.22,5.22,0,0,1,5.59-.23C134.59,14.62,136.64,16,138.83,17.26Z" style="fill:#00499a"/><path d="M136.88,31c0-2.83.05-5.65,0-8.47,0-1.4.33-2.06,1.88-2,5.71.06,11.43,0,17.15,0,1.26,0,1.81.43,1.74,1.73-.13,2.46-.3,5-.29,7.38,0,3.16.16,6.37.33,9.55.08,1.68-.35,2.4-2.21,2.36-5.5-.11-11-.08-16.52,0-1.54,0-2.15-.44-2.1-2,.1-2.82,0-5.65,0-8.47Z" style="fill:#00499a"/><path d="M176.68,21.63a35.79,35.79,0,0,0,0,3.59c.16,1.69-.32,2.42-2.18,2.31-2.6-.16-5.22-.08-7.82,0-1.2,0-1.82-.25-1.78-1.63.09-2.82.07-5.64,0-8.46,0-1.14.3-1.68,1.54-1.65,2.89.06,5.78.05,8.67,0,1.23,0,1.6.49,1.54,1.64C176.62,18.81,176.67,20.22,176.68,21.63Z" style="fill:#00499a"/><path d="M158.86,4.77c0,5,0,5-4.93,5s-5,0-5-5c0-4.7,0-4.7,4.69-4.7.85,0,1.69,0,2.54,0,2.72-.1,2.71-.11,2.7,2.62Z" style="fill:#00499a"/><text transform="translate(-11.58 213.43)" style="font-size:95.69286346435547px;fill:#00499a;font-family:aliensandcows, aliens and cows">DATAB<tspan x="203.92" y="0" style="letter-spacing:-0.011491028015998208em">O</tspan><tspan x="245.11" y="0">X</tspan></text></g></g></svg>